<svg xmlns="http://www.w3.org/2000/svg" xmlns:xlink="http://www.w3.org/1999/xlink" width="400" zoomAndPan="magnify" viewBox="0 0 300 299.999988" height="400" preserveAspectRatio="xMidYMid meet" version="1.0"><defs><clipPath id="d855e77a3d"><path d="M 0 54 L 300 54 L 300 266.796875 L 0 266.796875 Z M 0 54 " clip-rule="nonzero"/></clipPath><clipPath id="ecefd0cd2a"><path d="M 48 33.546875 L 252 33.546875 L 252 77 L 48 77 Z M 48 33.546875 " clip-rule="nonzero"/></clipPath></defs><g clip-path="url(#d855e77a3d)"><path fill="#f7f2e8" d="M 23.183594 54.925781 L 276.816406 54.925781 C 289.5625 54.925781 299.851562 65.230469 299.851562 77.996094 L 299.851562 243.722656 C 299.851562 256.492188 289.5625 266.796875 276.816406 266.796875 L 23.183594 266.796875 C 10.4375 266.796875 0.148438 256.492188 0.148438 243.722656 L 0.148438 77.996094 C 0.148438 65.230469 10.4375 54.925781 23.183594 54.925781 Z M 23.183594 54.925781 " fill-opacity="1" fill-rule="nonzero"/></g><path fill="#116466" d="M 276.816406 54.925781 L 23.183594 54.925781 C 10.4375 54.925781 0.148438 65.230469 0.148438 77.996094 L 0.148438 104.527344 L 299.851562 104.527344 L 299.851562 77.996094 C 299.851562 65.230469 289.5625 54.925781 276.816406 54.925781 Z M 276.816406 54.925781 " fill-opacity="1" fill-rule="nonzero"/><path fill="#116466" d="M 140.824219 126.753906 L 140.824219 146.824219 C 140.824219 149.902344 138.367188 152.4375 135.21875 152.4375 L 103.121094 152.4375 C 100.050781 152.4375 97.515625 149.976562 97.515625 146.824219 L 97.515625 126.753906 C 97.515625 123.675781 100.050781 121.140625 103.121094 121.140625 L 135.21875 121.140625 C 138.289062 121.140625 140.824219 123.675781 140.824219 126.753906 Z M 196.957031 121.140625 L 164.859375 121.140625 C 161.785156 121.140625 159.253906 123.601562 159.253906 126.753906 L 159.253906 146.824219 C 159.253906 149.902344 161.710938 152.4375 164.859375 152.4375 L 196.957031 152.4375 C 200.027344 152.4375 202.5625 149.976562 202.5625 146.824219 L 202.5625 126.753906 C 202.484375 123.675781 200.027344 121.140625 196.957031 121.140625 Z M 135.21875 166.511719 L 103.121094 166.511719 C 100.050781 166.511719 97.515625 168.972656 97.515625 172.125 L 97.515625 192.199219 C 97.515625 195.273438 100.050781 197.8125 103.121094 197.8125 L 135.21875 197.8125 C 138.289062 197.8125 140.824219 195.351562 140.824219 192.199219 L 140.824219 172.125 C 140.824219 169.050781 138.289062 166.511719 135.21875 166.511719 Z M 196.957031 166.511719 L 164.859375 166.511719 C 161.785156 166.511719 159.253906 168.972656 159.253906 172.125 L 159.253906 192.199219 C 159.253906 195.273438 161.710938 197.8125 164.859375 197.8125 L 196.957031 197.8125 C 200.027344 197.8125 202.5625 195.351562 202.5625 192.199219 L 202.5625 172.125 C 202.484375 169.050781 200.027344 166.511719 196.957031 166.511719 Z M 135.21875 211.886719 L 103.121094 211.886719 C 100.050781 211.886719 97.515625 214.347656 97.515625 217.5 L 97.515625 237.570312 C 97.515625 240.648438 100.050781 243.1875 103.121094 243.1875 L 135.21875 243.1875 C 138.289062 243.1875 140.824219 240.726562 140.824219 237.570312 L 140.824219 217.5 C 140.824219 214.347656 138.289062 211.886719 135.21875 211.886719 Z M 196.957031 211.886719 L 164.859375 211.886719 C 161.785156 211.886719 159.253906 214.347656 159.253906 217.5 L 159.253906 237.570312 C 159.253906 240.648438 161.710938 243.1875 164.859375 243.1875 L 196.957031 243.1875 C 200.027344 243.1875 202.5625 240.726562 202.5625 237.570312 L 202.5625 217.5 C 202.484375 214.347656 200.027344 211.886719 196.957031 211.886719 Z M 196.957031 211.886719 " fill-opacity="1" fill-rule="nonzero"/><path fill="#116466" d="M 79.085938 126.753906 L 79.085938 146.824219 C 79.085938 149.902344 76.628906 152.4375 73.480469 152.4375 L 41.382812 152.4375 C 38.3125 152.4375 35.777344 149.976562 35.777344 146.824219 L 35.777344 126.753906 C 35.777344 123.675781 38.234375 121.140625 41.382812 121.140625 L 73.480469 121.140625 C 76.628906 121.140625 79.085938 123.675781 79.085938 126.753906 Z M 258.617188 121.140625 L 226.519531 121.140625 C 223.449219 121.140625 220.914062 123.601562 220.914062 126.753906 L 220.914062 146.824219 C 220.914062 149.902344 223.371094 152.4375 226.519531 152.4375 L 258.617188 152.4375 C 261.6875 152.4375 264.222656 149.976562 264.222656 146.824219 L 264.222656 126.753906 C 264.222656 123.675781 261.6875 121.140625 258.617188 121.140625 Z M 73.558594 166.511719 L 41.382812 166.511719 C 38.3125 166.511719 35.777344 168.972656 35.777344 172.125 L 35.777344 192.199219 C 35.777344 195.273438 38.234375 197.8125 41.382812 197.8125 L 73.480469 197.8125 C 76.550781 197.8125 79.085938 195.351562 79.085938 192.199219 L 79.085938 172.125 C 79.085938 169.050781 76.628906 166.511719 73.558594 166.511719 Z M 258.617188 166.511719 L 226.519531 166.511719 C 223.449219 166.511719 220.914062 168.972656 220.914062 172.125 L 220.914062 192.199219 C 220.914062 195.273438 223.371094 197.8125 226.519531 197.8125 L 258.617188 197.8125 C 261.6875 197.8125 264.222656 195.351562 264.222656 192.199219 L 264.222656 172.125 C 264.222656 169.050781 261.6875 166.511719 258.617188 166.511719 Z M 73.558594 211.886719 L 41.382812 211.886719 C 38.3125 211.886719 35.777344 214.347656 35.777344 217.5 L 35.777344 237.570312 C 35.777344 240.648438 38.234375 243.1875 41.382812 243.1875 L 73.480469 243.1875 C 76.550781 243.1875 79.085938 240.726562 79.085938 237.570312 L 79.085938 217.5 C 79.085938 214.347656 76.628906 211.886719 73.558594 211.886719 Z M 258.617188 211.886719 L 226.519531 211.886719 C 223.449219 211.886719 220.914062 214.347656 220.914062 217.5 L 220.914062 237.570312 C 220.914062 240.648438 223.371094 243.1875 226.519531 243.1875 L 258.617188 243.1875 C 261.6875 243.1875 264.222656 240.726562 264.222656 237.570312 L 264.222656 217.5 C 264.222656 214.347656 261.6875 211.886719 258.617188 211.886719 Z M 258.617188 211.886719 " fill-opacity="1" fill-rule="nonzero"/><g clip-path="url(#ecefd0cd2a)"><path fill="#d9b08c" d="M 65.878906 42.003906 L 65.878906 67.84375 C 65.878906 72.535156 62.117188 76.304688 57.433594 76.304688 C 52.746094 76.304688 48.984375 72.535156 48.984375 67.84375 L 48.984375 42.003906 C 48.984375 37.3125 52.746094 33.546875 57.433594 33.546875 C 62.117188 33.546875 65.878906 37.3125 65.878906 42.003906 Z M 150.039062 33.546875 C 145.355469 33.546875 141.589844 37.3125 141.589844 42.003906 L 141.589844 67.84375 C 141.589844 72.535156 145.355469 76.304688 150.039062 76.304688 C 154.722656 76.304688 158.484375 72.535156 158.484375 67.84375 L 158.484375 42.003906 C 158.410156 37.3125 154.644531 33.546875 150.039062 33.546875 Z M 242.566406 33.546875 C 237.882812 33.546875 234.121094 37.3125 234.121094 42.003906 L 234.121094 67.84375 C 234.121094 72.535156 237.882812 76.304688 242.566406 76.304688 C 247.253906 76.304688 251.015625 72.535156 251.015625 67.84375 L 251.015625 42.003906 C 251.015625 37.3125 247.175781 33.546875 242.566406 33.546875 Z M 242.566406 33.546875 " fill-opacity="1" fill-rule="nonzero"/></g></svg>