<svg xmlns="http://www.w3.org/2000/svg" xmlns:xlink="http://www.w3.org/1999/xlink" width="400" zoomAndPan="magnify" viewBox="0 0 300 299.999988" height="400" preserveAspectRatio="xMidYMid meet" version="1.0"><defs><clipPath id="7fdc2f0aca"><path d="M 65.625 0 L 234.375 0 L 234.375 38 L 65.625 38 Z M 65.625 0 " clip-rule="nonzero"/></clipPath><clipPath id="23d2fa47ee"><path d="M 65.625 262 L 234.375 262 L 234.375 300 L 65.625 300 Z M 65.625 262 " clip-rule="nonzero"/></clipPath></defs><path fill="#d9b08c" d="M 156.125 141.296875 L 143.785156 141.296875 L 143.785156 153.640625 L 156.125 153.640625 L 156.125 141.296875 " fill-opacity="1" fill-rule="nonzero"/><path fill="#f7f2e8" d="M 77.941406 283.527344 L 77.941406 235.140625 C 77.941406 219.636719 93.945312 204.320312 109.421875 189.503906 C 123.464844 176.066406 137.980469 162.167969 137.980469 150.003906 C 137.980469 137.839844 123.464844 123.945312 109.421875 110.503906 C 93.945312 95.6875 77.941406 80.371094 77.941406 64.859375 L 77.941406 16.476562 L 221.96875 16.476562 L 221.96875 64.859375 C 221.96875 80.371094 205.964844 95.6875 190.484375 110.503906 C 176.445312 123.945312 161.925781 137.839844 161.925781 150.003906 C 161.925781 162.167969 176.445312 176.066406 190.484375 189.503906 C 205.964844 204.320312 221.96875 219.636719 221.96875 235.140625 L 221.96875 283.527344 L 77.941406 283.527344 " fill-opacity="1" fill-rule="nonzero"/><path fill="#116466" d="M 224.246094 14.199219 L 75.664062 14.199219 L 75.664062 64.859375 C 75.664062 81.339844 92.023438 97 107.847656 112.148438 C 121.542969 125.257812 135.707031 138.8125 135.707031 150.003906 C 135.707031 161.195312 121.542969 174.75 107.847656 187.859375 C 92.023438 203.007812 75.664062 218.660156 75.664062 235.140625 L 75.664062 285.804688 L 224.246094 285.804688 L 224.246094 235.140625 C 224.246094 218.660156 207.882812 203.007812 192.0625 187.859375 C 178.363281 174.75 164.203125 161.195312 164.203125 150.003906 C 164.203125 138.8125 178.363281 125.257812 192.0625 112.148438 C 207.882812 97 224.246094 81.339844 224.246094 64.859375 Z M 219.691406 18.753906 C 219.691406 18.753906 219.691406 36.28125 219.691406 64.859375 C 219.691406 93.449219 159.648438 123.28125 159.648438 150.003906 C 159.648438 176.722656 219.691406 206.554688 219.691406 235.140625 C 219.691406 263.726562 219.691406 281.25 219.691406 281.25 L 80.21875 281.25 C 80.21875 281.25 80.21875 263.726562 80.21875 235.140625 C 80.21875 206.554688 140.257812 176.722656 140.257812 150.003906 C 140.257812 123.28125 80.21875 93.449219 80.21875 64.859375 C 80.21875 36.28125 80.21875 18.753906 80.21875 18.753906 L 219.691406 18.753906 " fill-opacity="1" fill-rule="nonzero"/><path fill="#116466" d="M 74.796875 35.007812 C 70.972656 35.007812 67.863281 31.898438 67.863281 28.074219 L 67.863281 9.429688 C 67.863281 5.605469 70.972656 2.492188 74.796875 2.492188 L 225.113281 2.492188 C 228.933594 2.492188 232.046875 5.605469 232.046875 9.429688 L 232.046875 28.074219 C 232.046875 31.898438 228.933594 35.007812 225.113281 35.007812 L 74.796875 35.007812 " fill-opacity="1" fill-rule="nonzero"/><g clip-path="url(#7fdc2f0aca)"><path fill="#116466" d="M 225.113281 0.214844 L 74.796875 0.214844 C 69.714844 0.214844 65.585938 4.347656 65.585938 9.429688 L 65.585938 28.074219 C 65.585938 33.152344 69.714844 37.285156 74.796875 37.285156 L 225.113281 37.285156 C 230.1875 37.285156 234.324219 33.152344 234.324219 28.074219 L 234.324219 9.429688 C 234.324219 4.347656 230.1875 0.214844 225.113281 0.214844 Z M 225.113281 4.769531 C 227.683594 4.769531 229.769531 6.851562 229.769531 9.429688 L 229.769531 28.074219 C 229.769531 30.644531 227.683594 32.734375 225.113281 32.734375 L 74.796875 32.734375 C 72.222656 32.734375 70.140625 30.644531 70.140625 28.074219 L 70.140625 9.429688 C 70.140625 6.851562 72.222656 4.769531 74.796875 4.769531 L 225.113281 4.769531 " fill-opacity="1" fill-rule="nonzero"/></g><path fill="#116466" d="M 74.796875 297.511719 C 70.972656 297.511719 67.863281 294.398438 67.863281 290.574219 L 67.863281 271.929688 C 67.863281 268.105469 70.972656 264.992188 74.796875 264.992188 L 225.113281 264.992188 C 228.933594 264.992188 232.046875 268.105469 232.046875 271.929688 L 232.046875 290.574219 C 232.046875 294.398438 228.933594 297.511719 225.113281 297.511719 L 74.796875 297.511719 " fill-opacity="1" fill-rule="nonzero"/><g clip-path="url(#23d2fa47ee)"><path fill="#116466" d="M 225.113281 262.714844 L 74.796875 262.714844 C 69.714844 262.714844 65.585938 266.851562 65.585938 271.929688 L 65.585938 290.574219 C 65.585938 295.652344 69.714844 299.789062 74.796875 299.789062 L 225.113281 299.789062 C 230.1875 299.789062 234.324219 295.652344 234.324219 290.574219 L 234.324219 271.929688 C 234.324219 266.851562 230.1875 262.714844 225.113281 262.714844 Z M 225.113281 267.269531 C 227.683594 267.269531 229.769531 269.355469 229.769531 271.929688 L 229.769531 290.574219 C 229.769531 293.144531 227.683594 295.234375 225.113281 295.234375 L 74.796875 295.234375 C 72.222656 295.234375 70.140625 293.144531 70.140625 290.574219 L 70.140625 271.929688 C 70.140625 269.355469 72.222656 267.269531 74.796875 267.269531 L 225.113281 267.269531 " fill-opacity="1" fill-rule="nonzero"/></g><path fill="#d9b08c" d="M 204.8125 83.699219 C 208.25 80.074219 216.414062 68.148438 205.808594 64.574219 C 181.003906 56.210938 115.644531 57.761719 92.4375 61.5 C 80.382812 63.4375 90.789062 78.898438 95.511719 83.019531 C 113.214844 98.453125 143.785156 134.222656 143.785156 141.296875 C 143.785156 148.375 156.125 148.800781 156.125 141.296875 C 156.125 133.792969 189.15625 100.207031 204.8125 83.699219 " fill-opacity="1" fill-rule="nonzero"/><path fill="#d9b08c" d="M 171.953125 251.699219 C 164.261719 247.261719 160.105469 243.929688 157.230469 240.335938 C 151.625 233.335938 147.875 234.117188 142.839844 240.335938 C 140.699219 242.996094 135.3125 247.160156 128.054688 251.699219 L 171.953125 251.699219 " fill-opacity="1" fill-rule="nonzero"/><path fill="#d9b08c" d="M 156.125 153.640625 C 156.125 149.957031 153.363281 146.96875 149.953125 146.96875 C 146.546875 146.96875 143.785156 149.957031 143.785156 153.640625 C 143.785156 157.324219 146.546875 160.3125 149.953125 160.3125 C 153.363281 160.3125 156.125 157.324219 156.125 153.640625 " fill-opacity="1" fill-rule="nonzero"/><path fill="#d9b08c" d="M 154.375 175.84375 C 154.375 173.203125 152.394531 171.066406 149.957031 171.066406 C 147.519531 171.066406 145.535156 173.203125 145.535156 175.84375 C 145.535156 178.480469 147.519531 180.621094 149.957031 180.621094 C 152.394531 180.621094 154.375 178.480469 154.375 175.84375 " fill-opacity="1" fill-rule="nonzero"/><path fill="#d9b08c" d="M 152.003906 219.21875 C 152.003906 217.996094 151.089844 217.003906 149.957031 217.003906 C 148.824219 217.003906 147.90625 217.996094 147.90625 219.21875 C 147.90625 220.445312 148.824219 221.441406 149.957031 221.441406 C 151.089844 221.441406 152.003906 220.445312 152.003906 219.21875 " fill-opacity="1" fill-rule="nonzero"/><path fill="#d9b08c" d="M 153.265625 200.945312 C 153.265625 198.96875 151.785156 197.367188 149.957031 197.367188 C 148.128906 197.367188 146.648438 198.96875 146.648438 200.945312 C 146.648438 202.929688 148.128906 204.527344 149.957031 204.527344 C 151.785156 204.527344 153.265625 202.929688 153.265625 200.945312 " fill-opacity="1" fill-rule="nonzero"/></svg>