<svg xmlns="http://www.w3.org/2000/svg" xmlns:xlink="http://www.w3.org/1999/xlink" width="400" zoomAndPan="magnify" viewBox="0 0 300 299.999988" height="400" preserveAspectRatio="xMidYMid meet" version="1.0"><path fill="#116466" d="M 37.261719 39.199219 L 37.261719 260.800781 C 37.261719 260.800781 34.1875 300.015625 69.527344 300.015625 L 230.390625 300.015625 C 265.746094 300.015625 262.667969 260.800781 262.667969 260.800781 L 262.667969 39.199219 C 262.667969 39.199219 265.746094 -0.015625 230.390625 -0.015625 L 69.527344 -0.015625 C 34.1875 -0.015625 37.261719 39.199219 37.261719 39.199219 " fill-opacity="1" fill-rule="nonzero"/><path fill="#d9b08c" d="M 101.746094 115.484375 C 101.746094 119.226562 98.714844 122.257812 94.976562 122.257812 L 71.074219 122.257812 C 67.347656 122.257812 64.300781 119.226562 64.300781 115.484375 L 64.300781 95.273438 C 64.300781 91.53125 67.347656 88.484375 71.074219 88.484375 L 94.976562 88.484375 C 98.714844 88.484375 101.746094 91.53125 101.746094 95.273438 L 101.746094 115.484375 " fill-opacity="1" fill-rule="nonzero"/><path fill="#f7f2e8" d="M 146.132812 115.484375 C 146.132812 119.226562 143.101562 122.257812 139.359375 122.257812 L 115.472656 122.257812 C 111.734375 122.257812 108.703125 119.226562 108.703125 115.484375 L 108.703125 95.273438 C 108.703125 91.53125 111.734375 88.484375 115.472656 88.484375 L 139.359375 88.484375 C 143.101562 88.484375 146.132812 91.53125 146.132812 95.273438 L 146.132812 115.484375 " fill-opacity="1" fill-rule="nonzero"/><path fill="#f7f2e8" d="M 190.886719 115.484375 C 190.886719 119.226562 187.859375 122.257812 184.101562 122.257812 L 160.214844 122.257812 C 156.472656 122.257812 153.445312 119.226562 153.445312 115.484375 L 153.445312 95.273438 C 153.445312 91.53125 156.472656 88.484375 160.214844 88.484375 L 184.101562 88.484375 C 187.859375 88.484375 190.886719 91.53125 190.886719 95.273438 L 190.886719 115.484375 " fill-opacity="1" fill-rule="nonzero"/><path fill="#f7f2e8" d="M 235.628906 115.484375 C 235.628906 119.226562 232.601562 122.257812 228.84375 122.257812 L 204.957031 122.257812 C 201.214844 122.257812 198.1875 119.226562 198.1875 115.484375 L 198.1875 95.273438 C 198.1875 91.53125 201.214844 88.484375 204.957031 88.484375 L 228.84375 88.484375 C 232.601562 88.484375 235.628906 91.53125 235.628906 95.273438 L 235.628906 115.484375 " fill-opacity="1" fill-rule="nonzero"/><path fill="#f7f2e8" d="M 101.746094 162.820312 C 101.746094 166.578125 98.714844 169.609375 94.976562 169.609375 L 71.074219 169.609375 C 67.347656 169.609375 64.300781 166.578125 64.300781 162.820312 L 64.300781 142.625 C 64.300781 138.882812 67.347656 135.851562 71.074219 135.851562 L 94.976562 135.851562 C 98.714844 135.851562 101.746094 138.882812 101.746094 142.625 L 101.746094 162.820312 " fill-opacity="1" fill-rule="nonzero"/><path fill="#f7f2e8" d="M 146.132812 162.820312 C 146.132812 166.578125 143.101562 169.609375 139.359375 169.609375 L 115.472656 169.609375 C 111.734375 169.609375 108.703125 166.578125 108.703125 162.820312 L 108.703125 142.625 C 108.703125 138.882812 111.734375 135.851562 115.472656 135.851562 L 139.359375 135.851562 C 143.101562 135.851562 146.132812 138.882812 146.132812 142.625 L 146.132812 162.820312 " fill-opacity="1" fill-rule="nonzero"/><path fill="#f7f2e8" d="M 190.886719 162.820312 C 190.886719 166.578125 187.859375 169.609375 184.101562 169.609375 L 160.214844 169.609375 C 156.472656 169.609375 153.445312 166.578125 153.445312 162.820312 L 153.445312 142.625 C 153.445312 138.882812 156.472656 135.851562 160.214844 135.851562 L 184.101562 135.851562 C 187.859375 135.851562 190.886719 138.882812 190.886719 142.625 L 190.886719 162.820312 " fill-opacity="1" fill-rule="nonzero"/><path fill="#f7f2e8" d="M 235.628906 162.820312 C 235.628906 166.578125 232.601562 169.609375 228.84375 169.609375 L 204.957031 169.609375 C 201.214844 169.609375 198.1875 166.578125 198.1875 162.820312 L 198.1875 142.625 C 198.1875 138.882812 201.214844 135.851562 204.957031 135.851562 L 228.84375 135.851562 C 232.601562 135.851562 235.628906 138.882812 235.628906 142.625 L 235.628906 162.820312 " fill-opacity="1" fill-rule="nonzero"/><path fill="#f7f2e8" d="M 101.746094 208.855469 C 101.746094 212.582031 98.714844 215.628906 94.976562 215.628906 L 71.074219 215.628906 C 67.347656 215.628906 64.300781 212.582031 64.300781 208.855469 L 64.300781 188.644531 C 64.300781 184.902344 67.347656 181.855469 71.074219 181.855469 L 94.976562 181.855469 C 98.714844 181.855469 101.746094 184.902344 101.746094 188.644531 L 101.746094 208.855469 " fill-opacity="1" fill-rule="nonzero"/><path fill="#f7f2e8" d="M 146.132812 208.855469 C 146.132812 212.582031 143.101562 215.628906 139.359375 215.628906 L 115.472656 215.628906 C 111.734375 215.628906 108.703125 212.582031 108.703125 208.855469 L 108.703125 188.644531 C 108.703125 184.902344 111.734375 181.855469 115.472656 181.855469 L 139.359375 181.855469 C 143.101562 181.855469 146.132812 184.902344 146.132812 188.644531 L 146.132812 208.855469 " fill-opacity="1" fill-rule="nonzero"/><path fill="#f7f2e8" d="M 190.886719 208.855469 C 190.886719 212.582031 187.859375 215.628906 184.101562 215.628906 L 160.214844 215.628906 C 156.472656 215.628906 153.445312 212.582031 153.445312 208.855469 L 153.445312 188.644531 C 153.445312 184.902344 156.472656 181.855469 160.214844 181.855469 L 184.101562 181.855469 C 187.859375 181.855469 190.886719 184.902344 190.886719 188.644531 L 190.886719 208.855469 " fill-opacity="1" fill-rule="nonzero"/><path fill="#f7f2e8" d="M 235.628906 208.855469 C 235.628906 212.582031 232.601562 215.628906 228.84375 215.628906 L 204.957031 215.628906 C 201.214844 215.628906 198.1875 212.582031 198.1875 208.855469 L 198.1875 188.644531 C 198.1875 184.902344 201.214844 181.855469 204.957031 181.855469 L 228.84375 181.855469 C 232.601562 181.855469 235.628906 184.902344 235.628906 188.644531 L 235.628906 208.855469 " fill-opacity="1" fill-rule="nonzero"/><path fill="#f7f2e8" d="M 101.746094 255.1875 C 101.746094 258.941406 98.714844 261.972656 94.976562 261.972656 L 71.074219 261.972656 C 67.347656 261.972656 64.300781 258.945312 64.300781 255.1875 L 64.300781 234.988281 C 64.300781 231.246094 67.347656 228.214844 71.074219 228.214844 L 94.976562 228.214844 C 98.714844 228.214844 101.746094 231.246094 101.746094 234.988281 L 101.746094 255.1875 " fill-opacity="1" fill-rule="nonzero"/><path fill="#f7f2e8" d="M 146.132812 255.1875 C 146.132812 258.941406 143.101562 261.972656 139.359375 261.972656 L 115.472656 261.972656 C 111.734375 261.972656 108.703125 258.945312 108.703125 255.1875 L 108.703125 234.988281 C 108.703125 231.246094 111.734375 228.214844 115.472656 228.214844 L 139.359375 228.214844 C 143.101562 228.214844 146.132812 231.246094 146.132812 234.988281 L 146.132812 255.1875 " fill-opacity="1" fill-rule="nonzero"/><path fill="#f7f2e8" d="M 190.886719 255.1875 C 190.886719 258.941406 187.859375 261.972656 184.101562 261.972656 L 160.214844 261.972656 C 156.472656 261.972656 153.445312 258.945312 153.445312 255.1875 L 153.445312 234.988281 C 153.445312 231.246094 156.472656 228.214844 160.214844 228.214844 L 184.101562 228.214844 C 187.859375 228.214844 190.886719 231.246094 190.886719 234.988281 L 190.886719 255.1875 " fill-opacity="1" fill-rule="nonzero"/><path fill="#f7f2e8" d="M 235.628906 255.1875 C 235.628906 258.941406 232.601562 261.972656 228.84375 261.972656 L 204.957031 261.972656 C 201.214844 261.972656 198.1875 258.945312 198.1875 255.1875 L 198.1875 234.988281 C 198.1875 231.246094 201.214844 228.214844 204.957031 228.214844 L 228.84375 228.214844 C 232.601562 228.214844 235.628906 231.246094 235.628906 234.988281 L 235.628906 255.1875 " fill-opacity="1" fill-rule="nonzero"/><path fill="#f7f2e8" d="M 235.628906 60.957031 C 235.628906 67.359375 229.957031 72.558594 222.96875 72.558594 L 76.964844 72.558594 C 69.976562 72.558594 64.300781 67.359375 64.300781 60.957031 L 64.300781 36.527344 C 64.300781 30.109375 69.976562 24.914062 76.964844 24.914062 L 222.96875 24.914062 C 229.957031 24.914062 235.628906 30.109375 235.628906 36.527344 L 235.628906 60.957031 " fill-opacity="1" fill-rule="nonzero"/></svg>